<svg xmlns="http://www.w3.org/2000/svg" width="1180" height="1040" viewBox="0 0 1180 1040" font-family="Helvetica, Arial, sans-serif"><rect width="100%" height="100%" fill="#fff"/><rect x="444.2" y="927.5" width="71.5" height="60.5" rx="3" fill="#c9c9c9" stroke="#222" stroke-width="1.5" opacity="1.0"/><line x1="444.2" y1="977.0" x2="515.8" y2="977.0" stroke="#888" stroke-width="1"/><line x1="444.2" y1="963.2" x2="515.8" y2="963.2" stroke="#888" stroke-width="1"/><line x1="444.2" y1="949.5" x2="515.8" y2="949.5" stroke="#888" stroke-width="1"/><line x1="444.2" y1="935.8" x2="515.8" y2="935.8" stroke="#888" stroke-width="1"/><rect x="444.2" y="905.5" width="71.5" height="22.0" rx="2" fill="#3a2a1a" stroke="#222" stroke-width="1.5" opacity="1.0"/><rect x="469.0" y="988.0" width="22.0" height="16.5" rx="3" fill="#777" stroke="#222" stroke-width="1.5" opacity="1.0"/><line x1="515.8" y1="957.8" x2="760" y2="957.8" stroke="#888" stroke-width="1" stroke-dasharray="3 3"/><circle cx="515.8" cy="957.8" r="3" fill="#888"/><text x="768.0" y="961.8" font-size="13" text-anchor="start" fill="#111" font-weight="bold">E26 male pigtail plug</text><text x="768.0" y="977.8" font-size="11" text-anchor="start" fill="#555" font-weight="normal">threaded shell + bakelite body, two leads; epoxied into the cup</text><rect x="436.7" y="812.0" width="86.6" height="33.0" rx="2" fill="#555" stroke="#222" stroke-width="1.5" opacity="1.0"/><rect x="443.6" y="810.6" width="72.9" height="28.9" rx="2" fill="#777" stroke="#555" stroke-width="1.5" stroke-dasharray="4 2" opacity="1.0"/><rect x="401.6" y="806.5" width="156.8" height="5.5" rx="2" fill="#555" stroke="#222" stroke-width="1.5" opacity="1.0"/><rect x="407.1" y="797.1" width="145.8" height="9.3" rx="2" fill="#555" stroke="#222" stroke-width="1.5" opacity="1.0"/><line x1="524.0" y1="828.5" x2="760" y2="828.5" stroke="#888" stroke-width="1" stroke-dasharray="3 3"/><circle cx="524.0" cy="828.5" r="3" fill="#888"/><text x="768.0" y="832.5" font-size="13" text-anchor="start" fill="#111" font-weight="bold">cap  (PC-FR)</text><text x="768.0" y="848.5" font-size="11" text-anchor="start" fill="#555" font-weight="normal">cup captures the E26 plug; leads pass through the floor</text><line x1="401.6" y1="809.2" x2="330" y2="809.2" stroke="#888" stroke-width="1" stroke-dasharray="3 3"/><circle cx="401.6" cy="809.2" r="3" fill="#888"/><text x="322.0" y="813.2" font-size="13" text-anchor="end" fill="#111" font-weight="bold">fuse 1 A slow-blow, in the E26 lead</text><text x="322.0" y="829.2" font-size="11" text-anchor="end" fill="#555" font-weight="normal">heat-shrunk, tucked in the cap</text><rect x="401.6" y="633.8" width="156.8" height="102.8" rx="2" fill="#4a4a4a" stroke="#222" stroke-width="1.5" opacity="1.0"/><rect x="405.8" y="622.8" width="148.5" height="11.0" rx="2" fill="#4a4a4a" stroke="#222" stroke-width="1.5" opacity="1.0"/><rect x="415.4" y="648.6" width="129.2" height="77.0" rx="2" fill="#2b6cb0" stroke="#8fc1ff" stroke-width="1.5" stroke-dasharray="5 3" opacity="0.9"/><text x="480.0" y="685.6" font-size="11" text-anchor="middle" fill="#fff" font-weight="bold">HLK-10M05</text><text x="480.0" y="704.9" font-size="10" text-anchor="middle" fill="#dbeafe" font-weight="normal">AC → 5 V 2 A, on its side</text><line x1="558.4" y1="676.1" x2="760" y2="676.1" stroke="#888" stroke-width="1" stroke-dasharray="3 3"/><circle cx="558.4" cy="676.1" r="3" fill="#888"/><text x="768.0" y="680.1" font-size="13" text-anchor="start" fill="#111" font-weight="bold">base  (PC-FR), 41 mm</text><text x="768.0" y="696.1" font-size="11" text-anchor="start" fill="#555" font-weight="normal">open bottom: PSU drops in, cap closes it</text><line x1="441.5" y1="632.1" x2="330" y2="632.1" stroke="#888" stroke-width="1" stroke-dasharray="3 3"/><circle cx="441.5" cy="632.1" r="3" fill="#888"/><text x="322.0" y="636.1" font-size="13" text-anchor="end" fill="#111" font-weight="bold">10-facet socket + wire hole in the top plate</text><text x="322.0" y="652.1" font-size="11" text-anchor="end" fill="#555" font-weight="normal">5 V / GND / data up into the core</text><rect x="425.7" y="369.8" width="108.6" height="192.5" rx="2" fill="#e0932a" stroke="#222" stroke-width="1.5" opacity="1.0"/><line x1="436.6" y1="369.8" x2="436.6" y2="562.3" stroke="#b8741a" stroke-width="0.8"/><line x1="447.4" y1="369.8" x2="447.4" y2="562.3" stroke="#b8741a" stroke-width="0.8"/><line x1="458.3" y1="369.8" x2="458.3" y2="562.3" stroke="#b8741a" stroke-width="0.8"/><line x1="469.1" y1="369.8" x2="469.1" y2="562.3" stroke="#b8741a" stroke-width="0.8"/><line x1="480.0" y1="369.8" x2="480.0" y2="562.3" stroke="#b8741a" stroke-width="0.8"/><line x1="490.9" y1="369.8" x2="490.9" y2="562.3" stroke="#b8741a" stroke-width="0.8"/><line x1="501.7" y1="369.8" x2="501.7" y2="562.3" stroke="#b8741a" stroke-width="0.8"/><line x1="512.6" y1="369.8" x2="512.6" y2="562.3" stroke="#b8741a" stroke-width="0.8"/><line x1="523.5" y1="369.8" x2="523.5" y2="562.3" stroke="#b8741a" stroke-width="0.8"/><rect x="433.2" y="372.5" width="16.5" height="187.0" rx="2" fill="#f5f5f5" stroke="#999" stroke-width="1.5" opacity="1.0"/><rect x="437.5" y="547.3" width="8" height="8" rx="1" fill="#ffd27a" stroke="#c9a24a"/><rect x="437.5" y="528.2" width="8" height="8" rx="1" fill="#ffd27a" stroke="#c9a24a"/><rect x="437.5" y="509.1" width="8" height="8" rx="1" fill="#ffd27a" stroke="#c9a24a"/><rect x="437.5" y="490.0" width="8" height="8" rx="1" fill="#ffd27a" stroke="#c9a24a"/><rect x="437.5" y="471.0" width="8" height="8" rx="1" fill="#ffd27a" stroke="#c9a24a"/><rect x="437.5" y="451.9" width="8" height="8" rx="1" fill="#ffd27a" stroke="#c9a24a"/><rect x="437.5" y="432.8" width="8" height="8" rx="1" fill="#ffd27a" stroke="#c9a24a"/><rect x="437.5" y="413.7" width="8" height="8" rx="1" fill="#ffd27a" stroke="#c9a24a"/><rect x="437.5" y="394.6" width="8" height="8" rx="1" fill="#ffd27a" stroke="#c9a24a"/><rect x="437.5" y="375.5" width="8" height="8" rx="1" fill="#ffd27a" stroke="#c9a24a"/><rect x="504.8" y="372.5" width="16.5" height="187.0" rx="2" fill="#f5f5f5" stroke="#999" stroke-width="1.5" opacity="1.0"/><rect x="509.0" y="547.3" width="8" height="8" rx="1" fill="#ffd27a" stroke="#c9a24a"/><rect x="509.0" y="528.2" width="8" height="8" rx="1" fill="#ffd27a" stroke="#c9a24a"/><rect x="509.0" y="509.1" width="8" height="8" rx="1" fill="#ffd27a" stroke="#c9a24a"/><rect x="509.0" y="490.0" width="8" height="8" rx="1" fill="#ffd27a" stroke="#c9a24a"/><rect x="509.0" y="471.0" width="8" height="8" rx="1" fill="#ffd27a" stroke="#c9a24a"/><rect x="509.0" y="451.9" width="8" height="8" rx="1" fill="#ffd27a" stroke="#c9a24a"/><rect x="509.0" y="432.8" width="8" height="8" rx="1" fill="#ffd27a" stroke="#c9a24a"/><rect x="509.0" y="413.7" width="8" height="8" rx="1" fill="#ffd27a" stroke="#c9a24a"/><rect x="509.0" y="394.6" width="8" height="8" rx="1" fill="#ffd27a" stroke="#c9a24a"/><rect x="509.0" y="375.5" width="8" height="8" rx="1" fill="#ffd27a" stroke="#c9a24a"/><rect x="455.2" y="449.5" width="49.5" height="57.8" rx="2" fill="#1565c0" stroke="#9ecbff" stroke-width="1.5" stroke-dasharray="5 3" opacity="0.9"/><text x="480.0" y="483.8" font-size="10" text-anchor="middle" fill="#fff" font-weight="bold">XIAO C6</text><rect x="463.5" y="518.3" width="33.0" height="22.0" rx="2" fill="#6a1b9a" stroke="#d1a3ff" stroke-width="1.5" stroke-dasharray="5 3" opacity="0.9"/><text x="480.0" y="532.8" font-size="8" text-anchor="middle" fill="#fff" font-weight="bold">74AHCT125</text><rect x="469.0" y="402.8" width="22.0" height="33.0" rx="2" fill="#333" stroke="#bbb" stroke-width="1.5" stroke-dasharray="5 3" opacity="0.9"/><text x="480.0" y="422.8" font-size="8" text-anchor="middle" fill="#fff" font-weight="normal">1000µF</text><line x1="534.3" y1="397.3" x2="760" y2="397.3" stroke="#888" stroke-width="1" stroke-dasharray="3 3"/><circle cx="534.3" cy="397.3" r="3" fill="#888"/><text x="768.0" y="401.3" font-size="13" text-anchor="start" fill="#111" font-weight="bold">core  (PETG), 10 facets</text><text x="768.0" y="417.3" font-size="11" text-anchor="start" fill="#555" font-weight="normal">XIAO, level shifter and cap live in the bore</text><line x1="433.2" y1="466.0" x2="330" y2="466.0" stroke="#888" stroke-width="1" stroke-dasharray="3 3"/><circle cx="433.2" cy="466.0" r="3" fill="#888"/><text x="322.0" y="470.0" font-size="13" text-anchor="end" fill="#111" font-weight="bold">SK6812 RGBWW 144/m, 12 mm strip</text><text x="322.0" y="486.0" font-size="11" text-anchor="end" fill="#555" font-weight="normal">10 columns × 10 px, data-in at the bottom of each</text><line x1="425.7" y1="554.0" x2="330" y2="554.0" stroke="#888" stroke-width="1" stroke-dasharray="3 3"/><circle cx="425.7" cy="554.0" r="3" fill="#888"/><text x="322.0" y="558.0" font-size="13" text-anchor="end" fill="#111" font-weight="bold">5 V ring at the base of the mast (22 AWG)</text><text x="322.0" y="574.0" font-size="11" text-anchor="end" fill="#555" font-weight="normal">star-feeds all 10 columns</text><rect x="401.6" y="100.3" width="156.8" height="209.0" rx="2" fill="#fff3c4" stroke="#c9b76a" stroke-width="1.5" opacity="0.85"/><rect x="407.1" y="94.8" width="145.8" height="5.5" rx="6" fill="#fff3c4" stroke="#c9b76a" stroke-width="1.5" opacity="0.85"/><line x1="558.4" y1="199.3" x2="760" y2="199.3" stroke="#888" stroke-width="1" stroke-dasharray="3 3"/><circle cx="558.4" cy="199.3" r="3" fill="#888"/><text x="768.0" y="203.3" font-size="13" text-anchor="start" fill="#111" font-weight="bold">shade  (translucent PETG)</text><text x="768.0" y="219.3" font-size="11" text-anchor="start" fill="#555" font-weight="normal">one piece; slides down over the core onto the base spigot</text><text x="30.0" y="34.0" font-size="20" text-anchor="start" fill="#111" font-weight="bold">Flame bulb — exploded assembly (side view, to scale)</text><text x="30.0" y="56.0" font-size="12" text-anchor="start" fill="#555" font-weight="normal">Ø57 mm, ~140 mm tall including the E26 plug. Dashed = inside a printed part.</text><text x="760.0" y="76.0" font-size="12" text-anchor="start" fill="#111" font-weight="bold">Assembly order</text><text x="760.0" y="96.0" font-size="11" text-anchor="start" fill="#333" font-weight="normal">1 mains: shell → fuse → HLK-10M05</text><text x="760.0" y="113.0" font-size="11" text-anchor="start" fill="#333" font-weight="normal">2 PSU into base, cap closes bottom</text><text x="760.0" y="130.0" font-size="11" text-anchor="start" fill="#333" font-weight="normal">3 XIAO + shifter + cap into core</text><text x="760.0" y="147.0" font-size="11" text-anchor="start" fill="#333" font-weight="normal">4 strips on facets, ring-feed 5 V</text><text x="760.0" y="164.0" font-size="11" text-anchor="start" fill="#333" font-weight="normal">5 core into base socket</text><text x="760.0" y="181.0" font-size="11" text-anchor="start" fill="#333" font-weight="normal">6 shade over the top</text><line x1="480.0" y1="1010.0" x2="480.0" y2="89.3" stroke="#bbb" stroke-width="1" stroke-dasharray="2 6"/></svg>